<?xml version="1.0" encoding="UTF-8"?>
<svg xmlns="http://www.w3.org/2000/svg" width="160" height="160" viewBox="0 0 160 160">
<path id="bg" style="fill:#f2f2f2;stroke:none" d="m 5,-5 v 140 h 45 v 30 H 155 V 25 H 110 V -5 Z" />
<path id="fg" style="fill:#000000;stroke:none" d="M 10 0 L 10 130 L 50 130 L 50 120 L 20 120 L 20 10 L 95 10 L 95 25 L 105 25 L 105 0 L 10 0 z M 85 30 L 55 60 L 85 60 L 85 30 z M 90 30 L 90 40 L 140 40 L 140 150 L 65 150 L 65 65 L 55 65 L 55 160 L 150 160 L 150 30 L 90 30 z " />
</svg>
