<?xml version="1.0" encoding="UTF-8"?>
<svg xmlns="http://www.w3.org/2000/svg" width="160" height="160" viewBox="0 0 160 160">
<path id="bg" style="fill:#f2f2f2;stroke:none" d="M 77.5 -5 L 76 -3 L 60 18.3 L 60 88.7 L 52.8 81.5 C 41.2 69.9 22.1 69.9 10.4 81.5 C -1.3 93.2 -1.3 112.3 10.4 124 C 22.1 135.6 41.2 135.6 52.8 124 L 62.6 114.2 L 74.5 110.2 L 80 121.2 L 80 135 C 80 151.5 93.5 165 110 165 C 126.5 165 140 151.5 140 135 C 140 118.5 126.5 105 110 105 L 100.1 105 L 149.5 55.6 L 153.6 26.7 L 144.7 17.9 L 90 72.6 L 90 -5 L 77.5 -5 z M 31.6 92.7 C 34.3 92.7 36.8 93.8 38.7 95.7 C 42.6 99.6 42.6 105.9 38.7 109.8 C 34.7 113.8 28.5 113.8 24.5 109.8 C 20.6 105.9 20.6 99.6 24.5 95.7 C 26.4 93.8 29 92.7 31.6 92.7 z M 110 125 C 115.6 125 120 129.4 120 135 C 120 140.6 115.6 145 110 145 C 104.4 145 100 140.6 100 135 C 100 129.4 104.4 125 110 125 z " />
<path id="fg" style="fill:#000000;stroke:none" d="M 80 0 L 65 20 L 65 90 L 68 93 L 59.9 95.7 L 49.3 85.1 A 25 25 45 0 0 13.9 85.1 A 25 25 45 0 0 13.9 120.4 A 25 25 45 0 0 49.3 120.4 L 59.9 109.8 L 77.1 104.1 L 85 120 L 85 135 A 25 25 0 0 0 110 160 A 25 25 0 0 0 135 135 A 25 25 0 0 0 110 110 L 95 110 L 91.4 102.7 L 95.3 102.7 L 144.7 53.3 L 148.3 28.5 L 144.7 25 L 85 84.7 L 85 0 L 80 0 z M 31.6 87.7 A 15 15 45 0 1 42.2 92.1 A 15 15 45 0 1 42.2 113.4 A 15 15 45 0 1 21 113.4 A 15 15 45 0 1 21 92.1 A 15 15 45 0 1 31.6 87.7 z M 110 120 A 15 15 0 0 1 125 135 A 15 15 0 0 1 110 150 A 15 15 0 0 1 95 135 A 15 15 0 0 1 110 120 z " />
</svg>
