<?xml version="1.0" encoding="UTF-8"?>
<svg xmlns="http://www.w3.org/2000/svg" width="160" height="160" viewBox="0 0 160 160">
<path id="bg" style="fill:#f2f2f2;stroke:none" d="M 80,-5 A 85,85 0 0 0 -5,80 85,85 0 0 0 80,165 85,85 0 0 0 165,80 85,85 0 0 0 80,-5 Z m 0,80 a 5,5 0 0 1 5,5 5,5 0 0 1 -5,5 5,5 0 0 1 -5,-5 5,5 0 0 1 5,-5 z" />
<path id="fg" style="fill:#000000;stroke:none" d="M 80,0 C 35.8,0 0,35.8 0,80 0,124.2 35.8,160 80,160 124.2,160 160,124.2 160,80 160,35.8 124.2,0 80,0 Z m 0,10 V 50 c 10.7,0 20.6,5.7 25.9,15 l 34.6,-20 c 6.2,10.6 9.4,22.7 9.5,35 0,9.2 -1.8,18.3 -5.4,26.8 L 107.7,91.5 c -1,2.4 -2.3,4.7 -3.9,6.8 l 31.7,24.3 c -13.2,17.3 -33.7,27.4 -55.5,27.4 V 110 C 69.3,110 59.4,104.3 54.1,95 L 19.5,115 C 13.3,104.3 10,92.3 10,80 10,70.8 11.8,61.7 15.3,53.2 l 36.9,15.3 c 1,-2.4 2.3,-4.7 3.9,-6.8 L 24.5,37.4 C 37.8,20.2 58.3,10 80,10 Z m 0,45 C 66.2,55 55,66.2 55,80 55,93.8 66.2,105 80,105 93.8,105 105,93.8 105,80 105,66.2 93.8,55 80,55 Z m 0,15 c 5.5,0 10,4.5 10,10 0,5.5 -4.5,10 -10,10 -5.5,0 -10,-4.5 -10,-10 0,-5.5 4.5,-10 10,-10 z" />
</svg>
