<?xml version="1.0" encoding="UTF-8"?>
<svg xmlns="http://www.w3.org/2000/svg" width="160" height="160" viewBox="0 0 160 160">
<path id="bg" style="fill:#f2f2f2;stroke:none" d="M 10,15 C 5.8,15 2.3,16.9 -0.4,19.6 -3.1,22.3 -5,25.8 -5,30 V 145 H 155 V 35 H 73.1 L 69.5,27.8 C 66.7,22.2 63.4,18.6 59.7,16.8 56,14.9 52.5,15 50,15 Z" />
<path id="fg" style="fill:#000000;stroke:none" d="M 10,20 C 5,20 0,25 0,30 v 110 h 150 v -20 -5 -5 h -20 v 20 H 115 V 110 H 95 V 95 h 20 V 75 h 15 v 20 h 20 V 90 85 40 H 70 L 65,30 C 60,20 55,20 50,20 Z" />
</svg>
