<?xml version="1.0" encoding="UTF-8"?>
<svg xmlns="http://www.w3.org/2000/svg" width="160" height="160" viewBox="0 0 160 160">
<path id="bg" style="fill:#f2f2f2;stroke:none" d="M 10 15 C 5.8 15 2.3 16.9 -0.4 19.6 C -3.1 22.3 -5 25.8 -5 30 L -5 70 L -5 135 L -5 145 L 145 145 L 170 70 L 145 70 L 145 60 L 145 50 L 145 35 L 73.1 35 L 69.5 27.8 C 66.7 22.2 63.4 18.6 59.7 16.8 C 56 14.9 52.5 15 50 15 L 10 15 z " />
<path id="fg" style="fill:#000000;stroke:none" d="M 10 20 C 5 20 0 25 0 30 L 0 135 L 21.7 70 L 140 70 L 140 60 L 140 50 L 140 40 L 70 40 L 65 30 C 60 20 55 20 50 20 L 10 20 z M 25 80 L 5 140 L 140 140 L 160 80 L 25 80 z " />
</svg>
