<?xml version="1.0" encoding="UTF-8"?>
<svg xmlns="http://www.w3.org/2000/svg" width="160" height="160" viewBox="0 0 160 160">
<path id="bg" style="fill:#f2f2f2;stroke:none" d="m 145,80 a 20,20 0 0 0 -20,-20 20,20 0 0 0 -20,20 20,20 0 0 0 20,20 20,20 0 0 0 20,-20 z m -45,0 A 20,20 0 0 0 80,60 20,20 0 0 0 60,80 20,20 0 0 0 80,100 20,20 0 0 0 100,80 Z M 55,80 A 20,20 0 0 0 35,60 20,20 0 0 0 15,80 20,20 0 0 0 35,100 20,20 0 0 0 55,80 Z" />
<path id="fg" style="fill:#000000;stroke:none" d="M 140,79.9 A 15,15 0 0 0 125,65 a 15,15 0 0 0 -15,15 15,15 0 0 0 15,15 15,15 0 0 0 15,-15 15,15 0 0 0 0,-0.1 z m -45,0 A 15,15 0 0 0 80,65 15,15 0 0 0 65,80 15,15 0 0 0 80,95 15,15 0 0 0 95,80 15,15 0 0 0 95,79.9 Z m -45,0 A 15,15 0 0 0 35,65 15,15 0 0 0 20,80 15,15 0 0 0 35,95 15,15 0 0 0 50,80 15,15 0 0 0 50,79.9 Z" />
</svg>
