<?xml version="1.0" encoding="UTF-8"?>
<svg xmlns="http://www.w3.org/2000/svg" width="160" height="160" viewBox="0 0 160 160">
<path id="bg" style="fill:#f2f2f2;stroke:none" d="M 44.8,6.6 C 34.1,6.9 23.6,10.4 14.7,17.1 0.6,27.7 -5.4,44.2 -5,59.4 -4.5,74.5 1.5,89 12.3,99.7 c 19.5,19.3 38.3,31.2 57.1,50 L 80,160.3 90.6,149.7 C 109.4,130.9 128.2,119.1 147.7,99.7 158.5,89 164.6,74.5 165,59.3 165.4,44.2 159.3,27.7 145.1,17.1 125.9,2.7 99.2,3.2 79.9,17.8 69.6,9.9 57.1,6.1 44.8,6.6 Z" />
<path id="fg" style="fill:#000000;stroke:none" d="m 136.1,29.1 c -17.4,-13 -42.2,-10 -56.2,10 -14.1,-20 -38.8,-23.1 -56.2,-10 -19.9,15 -16.4,44.6 -0.8,60 18.1,18 37.1,30 57.1,50 20,-20 39,-32 57.1,-50 15.5,-15.4 19,-45 -1,-60 z" />
</svg>
