<?xml version="1.0" encoding="UTF-8"?>
<svg xmlns="http://www.w3.org/2000/svg" width="160" height="160" viewBox="0 0 160 160">
<path id="bg" style="fill:#f2f2f2;stroke:none" d="M 80 -5 L -5 80 L 80 165 L 165 80 L 80 -5 z M 45 45 L 60 45 L 60 60 L 45 60 L 45 45 z M 100 45 L 115 45 L 115 60 L 100 60 L 100 45 z M 45 100 L 60 100 L 60 115 L 45 115 L 45 100 z M 105 100 L 120 100 L 120 115 L 105 115 L 105 100 z " />
<path id="fg" style="fill:#000000;stroke:none" d="M 80 5 L 50 35 L 70 35 L 70 55 L 90 55 L 90 35 L 110 35 L 80 5 z M 35 50 L 5 80 L 35 110 L 35 90 L 55 90 L 55 70 L 35 70 L 35 50 z M 125 50 L 125 70 L 105 70 L 105 90 L 125 90 L 125 110 L 155 80 L 125 50 z M 70 70 L 70 90 L 90 90 L 90 70 L 70 70 z M 70 105 L 70 125 L 50 125 L 80 155 L 110 125 L 90 125 L 90 105 L 70 105 z " />
</svg>
