<?xml version="1.0" encoding="UTF-8"?>
<svg xmlns="http://www.w3.org/2000/svg" width="160" height="160" viewBox="0 0 160 160">
<path id="bg" style="fill:#f2f2f2;stroke:none" d="M 45 -5 L 45 0 L 35 0 C 21.2 -2.4e-15 10 11.2 10 25 L 10 140 C 10 153.9 21.2 165 35 165 L 125 165 C 138.9 165 150 153.9 150 140 L 150 25 C 150 11.2 138.9 0 125 0 L 113 0 L 113 -5 L 45 -5 z " />
<path id="fg" style="fill:#000000;stroke:none" d="M 55 0 L 55 25 L 65 25 L 60 35 L 60 40 L 100 40 L 100 35 L 95 25 L 105 25 L 105 0 L 55 0 z M 35 5 C 23.9 5 15 13.9 15 25 L 15 140 C 15 151.1 23.9 160 35 160 L 125 160 C 136.1 160 145 151.1 145 140 L 145 25 C 145 13.9 136.1 5 125 5 L 115 5 L 115 20 L 120 20 C 125.5 20 130 24.5 130 30 L 130 130 C 130 135.5 125.5 140 120 140 L 40 140 C 34.5 140 30 135.5 30 130 L 30 30 C 30 24.5 34.5 20 40 20 L 45 20 L 45 5 L 35 5 z " />
</svg>
