<?xml version="1.0" encoding="UTF-8"?>
<svg xmlns="http://www.w3.org/2000/svg" width="160" height="160" viewBox="0 0 160 160">
<path id="bg" style="fill:#f2f2f2;stroke:none" d="M 165,80 A 85,85 0 0 1 80,165 85,85 0 0 1 -5,80 85,85 0 0 1 80,-5 85,85 0 0 1 165,80 Z" />
<path id="fg" style="fill:#000000;stroke:none" d="m 80,10 c -38.7,0 -70,31.3 -70,70 0,38.7 31.3,70 70,70 38.7,0 70,-31.3 70,-70 0,-38.7 -31.3,-70 -70,-70 z m 15.1,25.3 c 4,1.2 7.3,2.9 10.1,5 2.7,2.2 4.7,4.7 6.1,7.7 1.4,2.9 2.1,6.1 2.1,9.6 0,4 -0.6,7.7 -1.8,10.9 -1.2,3.2 -2.9,6 -5.1,8.3 -2.2,2.3 -4.8,4.4 -7.8,6.3 -3,1.8 -6.4,3.5 -10.2,5 V 102 H 67.6 V 81.5 c 2.3,-0.6 4.8,-1.5 7.6,-2.5 2.8,-1.1 5.3,-2.4 7.4,-3.9 2.2,-1.6 4.1,-3.5 5.5,-5.6 1.4,-2.1 2.1,-4.6 2.1,-7.5 0,-4 -1.3,-7 -3.9,-8.8 -2.6,-1.8 -6.1,-2.8 -10.7,-2.8 -3.4,0 -7.1,0.8 -11,2.3 -3.8,1.5 -6.9,3 -9.1,4.5 H 53.9 V 38.7 c 2.6,-1.1 6.4,-2.3 11.5,-3.5 5,-1.2 10.4,-1.8 15.9,-1.8 5.5,4.7e-5 10,0.6 13.9,1.8 z M 66.1,110.4 h 24.1 v 16.2 h -24.1 z" />
</svg>
