<?xml version="1.0" encoding="UTF-8"?>
<svg xmlns="http://www.w3.org/2000/svg" width="160" height="160" viewBox="0 0 160 160">
<path id="bg" style="fill:#f2f2f2;stroke:none" d="M 80,145 V 105 H 70 C 59,105 50,96 50,85 50,74 59,65 70,65 H 90 V 95 L 160,45 90,-5 V 25 H 70 c -33.1,0 -60,26.9 -60,60 0,33.1 26.9,60 60,60 z" />
<path id="fg" style="fill:#000000;stroke:none" d="M 70,135 V 115 C 53.4,115 40,101.6 40,85 40,68.4 53.4,55 70,55 h 30 V 75 L 140,45 100,15 V 35 H 70 c -27.6,0 -50,22.4 -50,50 0,27.6 22.4,50 50,50 z" />
</svg>
