<?xml version="1.0" encoding="UTF-8"?>
<svg xmlns="http://www.w3.org/2000/svg" width="160" height="160" viewBox="0 0 160 160">
<path id="bg" style="fill:#f2f2f2;stroke:none" d="M 151.2,-11.5 129.9,9.8 a 86.3,86.3 0 0 0 -110.9,9.2 86.3,86.3 0 0 0 0,122 86.3,86.3 0 0 0 122,0 l 10.2,-10.2 -40.7,-40.7 -10.2,10.2 a 28.8,28.8 0 0 1 -40.7,0 28.8,28.8 0 0 1 0,-40.7 28.8,28.8 0 0 1 27.7,-7.4 l -17.6,17.6 106.7,25.4 z" />
<path id="fg" style="fill:#000000;stroke:none" d="m 146.1,13.9 -15.2,15.2 a 71.9,71.9 0 0 0 -101.6,0 71.9,71.9 0 0 0 0,101.6 71.9,71.9 0 0 0 101.6,0 l -20.3,-20.3 a 43.1,43.1 0 0 1 -61,0 43.1,43.1 0 0 1 0,-61 43.1,43.1 0 0 1 61,0 l -15.2,15.2 66.1,15.2 z" />
</svg>
