<?xml version="1.0" encoding="UTF-8"?>
<svg xmlns="http://www.w3.org/2000/svg" width="160" height="160" viewBox="0 0 160 160">
<path id="bg" style="fill:#f2f2f2;stroke:none" d="M 66.2 5 L 65.2 8.6 L 62.7 17.3 A 65 65 0 0 0 47.9 23.5 L 36.7 17.2 L 17.2 36.7 L 23.5 47.9 A 65 65 0 0 0 17.3 62.7 L 5 66.2 L 5 93.8 L 17.3 97.3 A 65 65 0 0 0 23.5 112.1 L 17.2 123.3 L 36.7 142.8 L 47.9 136.5 A 65 65 0 0 0 62.7 142.7 L 66.2 155 L 93.8 155 L 97.3 142.7 A 65 65 0 0 0 112.1 136.5 L 123.3 142.8 L 142.8 123.3 L 136.5 112.1 A 65 65 0 0 0 142.7 97.3 L 155 93.8 L 155 66.2 L 142.7 62.7 A 65 65 0 0 0 136.5 47.9 L 142.8 36.7 L 123.3 17.2 L 112.1 23.5 A 65 65 0 0 0 97.3 17.3 L 93.8 5 L 66.2 5 z M 79.9 65 A 15 15 0 0 1 80 65 A 15 15 0 0 1 95 80 A 15 15 0 0 1 80 95 A 15 15 0 0 1 65 80 A 15 15 0 0 1 79.9 65 z " />
<path id="fg" style="fill:#000000;stroke:none" d="M 70 10 L 65.1 27.1 A 55 55 0 0 0 53.1 32 L 37.6 23.4 L 23.4 37.6 L 32 53.1 A 55 55 0 0 0 27 65.1 L 10 70 L 10 90 L 27.1 94.9 A 55 55 0 0 0 32 106.9 L 23.4 122.4 L 37.6 136.6 L 53.1 128 A 55 55 0 0 0 65.1 133 L 70 150 L 90 150 L 94.9 132.9 A 55 55 0 0 0 106.9 128 L 122.4 136.6 L 136.6 122.4 L 128 106.9 A 55 55 0 0 0 133 94.9 L 150 90 L 150 70 L 132.9 65.1 A 55 55 0 0 0 128 53.1 L 136.6 37.6 L 122.4 23.4 L 106.9 32 A 55 55 0 0 0 94.9 27 L 90 10 L 70 10 z M 80 60 A 20 20 0 0 1 100 80 A 20 20 0 0 1 80 100 A 20 20 0 0 1 60 80 A 20 20 0 0 1 80 60 z " />
</svg>
