<?xml version="1.0" encoding="UTF-8"?>
<svg xmlns="http://www.w3.org/2000/svg" width="160" height="160" viewBox="0 0 160 160">
<path id="bg" style="fill:#f2f2f2;stroke:none" d="m 80,145 v -40 h 10 c 11,0 20,-9 20,-20 0,-11 -9,-20 -20,-20 H 70 V 95 L 0,45 70,-5 v 30 h 20 c 33.1,0 60,26.9 60,60 0,33.1 -26.9,60 -60,60 z" />
<path id="fg" style="fill:#000000;stroke:none" d="m 90,135 v -20 c 16.6,0 30,-13.4 30,-30 C 120,68.4 106.6,55 90,55 H 60 V 75 L 20,45 60,15 v 20 h 30 c 27.6,0 50,22.4 50,50 0,27.6 -22.4,50 -50,50 z" />
</svg>
