<?xml version="1.0" encoding="UTF-8"?>
<svg xmlns="http://www.w3.org/2000/svg" width="160" height="160" viewBox="0 0 160 160">
<path id="bg" style="fill:#f2f2f2;stroke:none" d="M 80 15 A 20 20 0 0 0 60 35 A 20 20 0 0 0 80 55 A 20 20 0 0 0 100 35 A 20 20 0 0 0 80 15 z M 80 60 A 20 20 0 0 0 60 80 A 20 20 0 0 0 80 100 A 20 20 0 0 0 100 80 A 20 20 0 0 0 80 60 z M 80 105 A 20 20 0 0 0 60 125 A 20 20 0 0 0 80 145 A 20 20 0 0 0 100 125 A 20 20 0 0 0 80 105 z " />
<path id="fg" style="fill:#000000;stroke:none" d="M 79.9 20 A 15 15 0 0 0 65 35 A 15 15 0 0 0 80 50 A 15 15 0 0 0 95 35 A 15 15 0 0 0 80 20 A 15 15 0 0 0 79.9 20 z M 79.9 65 A 15 15 0 0 0 65 80 A 15 15 0 0 0 80 95 A 15 15 0 0 0 95 80 A 15 15 0 0 0 80 65 A 15 15 0 0 0 79.9 65 z M 79.9 110 A 15 15 0 0 0 65 125 A 15 15 0 0 0 80 140 A 15 15 0 0 0 95 125 A 15 15 0 0 0 80 110 A 15 15 0 0 0 79.9 110 z " />
</svg>
